<svg width="126" height="100" viewBox="0 0 126 100" fill="none" xmlns="http://www.w3.org/2000/svg">
<g clip-path="url(#clip0_1_9)">
<path d="M63.8517 6.7757C63.4772 7.0915 63.0805 7.43426 62.9704 7.53744C62.8604 7.6403 62.4646 7.97429 62.0908 8.2788C61.717 8.58362 61.3566 8.92701 61.2902 9.04305C61.1983 9.20361 61.1622 12.4441 61.1387 22.7324L61.1073 36.2117H63.8705C65.6103 36.2117 66.6117 36.1763 66.5744 36.1157C66.5417 36.063 66.1544 35.8222 65.7138 35.5814L64.9123 35.1426L64.8919 33.1265C64.8806 32.0176 64.896 31.1103 64.9264 31.1103C65.0048 31.1103 66.903 32.0888 67.322 32.345C67.5145 32.4629 67.8071 32.6344 67.9721 32.7263C68.137 32.8179 68.4299 32.9816 68.6222 33.0895C69.5006 33.5821 71.4355 34.6117 71.4829 34.6117C71.5863 34.6117 69.9606 33.3651 67.3722 31.4606C66.7117 30.9748 65.9017 30.3774 65.5715 30.1328L64.9712 29.6878L64.9214 27.4478C64.8938 26.2159 64.885 25.208 64.9016 25.208C64.9182 25.2083 65.256 25.4178 65.6517 25.674C66.3912 26.1519 67.205 26.6716 67.8222 27.0589C68.0147 27.1796 68.4271 27.4427 68.7382 27.6428C69.4375 28.0935 71.0231 29.012 71.0231 28.9672C71.0231 28.9308 70.1469 28.2045 69.6254 27.809C69.4441 27.6717 68.3324 26.8049 67.1548 25.8835C65.9776 24.9618 64.9819 24.2076 64.9427 24.2076C64.9035 24.2076 64.8709 23.1276 64.8709 21.807C64.8709 20.1841 64.9054 19.4064 64.9769 19.4064C65.2299 19.4064 66.4122 20.2142 68.2722 21.6574C70.0133 23.009 71.2869 23.8771 71.3847 23.7799C71.4051 23.7595 71.0513 23.4082 70.5988 23.0002C70.146 22.5916 69.5495 22.0522 69.2735 21.8013C68.3816 20.99 65.9863 18.9538 65.4422 18.5449L64.9132 18.1469L64.8922 15.826C64.8803 14.5493 64.8884 13.5047 64.9098 13.5047C64.9314 13.5047 65.8992 14.2169 67.0604 15.0874C72.3233 19.0319 72.3713 19.0448 68.4221 15.4528C67.4593 14.5769 66.2579 13.4608 65.7527 12.9728L64.8342 12.0847L64.8213 11.4691C64.7934 10.1222 64.7994 9.71102 64.8586 8.65575C64.8928 8.05206 64.9207 7.54246 64.9207 7.52364C64.9207 7.43928 66.4743 8.7815 70.5151 12.3547C71.2618 13.0151 72.3986 14.0187 73.0415 14.5844C74.3972 15.7786 74.3065 15.6196 74.2517 16.7059C74.2241 17.2491 74.2426 17.5084 74.3021 17.4228C74.3972 17.2877 74.5574 24.6686 74.5684 29.68C74.5722 31.3606 74.607 32.1678 74.6741 32.101C74.7333 32.0417 74.7857 30.9943 74.8036 29.5056C74.8205 28.1327 74.8685 27.0093 74.9112 27.0093C74.9538 27.0093 74.988 25.9628 74.9874 24.6837C74.9864 23.4045 75.0181 21.2102 75.0576 19.8071C75.0968 18.4038 75.1391 16.885 75.1514 16.4309C75.1639 15.9771 75.1404 15.6058 75.0993 15.6055C75.0579 15.6055 75.0241 15.5478 75.0241 15.4772C75.0241 15.2797 74.3319 14.6286 71.12 11.8043C70.4254 11.1937 68.1154 9.06939 66.7719 7.8062C64.8709 6.01866 64.7856 5.98856 63.8517 6.7757ZM59.4195 10.6035C59.4195 10.6584 59.3687 10.7036 59.3066 10.7036C59.1495 10.7036 57.7408 11.9072 56.6934 12.9358L55.8181 13.796L55.8187 25.0286L55.819 36.2616H57.5724C58.9068 36.2616 59.3449 36.2302 59.4073 36.1311C59.6281 35.7761 59.7394 10.5032 59.5199 10.5032C59.4644 10.5035 59.4195 10.5483 59.4195 10.6035ZM53.2381 15.8338C52.9791 16.0699 52.2945 16.6614 51.7168 17.1481C51.1389 17.6348 50.5656 18.151 50.442 18.2946L50.2175 18.5559L50.2169 27.3835L50.2165 36.2111H52.0668H53.9174V25.8086C53.9174 18.6543 53.8847 15.4051 53.8129 15.4051C53.7559 15.4051 53.4971 15.598 53.2381 15.8338ZM49.1497 37.1798C48.9935 37.2447 46.908 39.2703 44.5146 41.6816L40.1631 46.0651L45.9136 46.0908L51.6641 46.1168L54.3511 43.4399C57.6822 40.122 60.3384 37.3184 60.2901 37.1729C60.2355 37.0104 49.5404 37.0177 49.1497 37.1798ZM62.7205 37.2002C62.7205 37.2482 63.629 38.1827 64.7401 39.2759C65.8509 40.3688 67.3659 41.8597 68.1069 42.5885C68.848 43.3176 69.4877 43.9144 69.5288 43.9144C69.7185 43.9144 75.9244 37.4228 75.9244 37.224C75.9244 37.1425 74.1215 37.112 69.3225 37.112C65.5881 37.112 62.7205 37.1503 62.7205 37.2002ZM76.3481 37.9491C76.058 38.2316 75.8215 38.4866 75.8228 38.5157C75.8269 38.6274 83.2561 46.0149 83.364 46.0143C83.6842 46.0127 84.429 45.2011 84.2913 45.0039C83.7761 44.2691 77.1296 37.3993 76.9571 37.4238C76.9123 37.4304 76.6379 37.6668 76.3481 37.9491ZM60.7197 38.0366C60.4952 38.2699 60.3249 38.5364 60.3409 38.6289C60.3735 38.8202 69.6486 48.2158 69.8045 48.2158C69.8606 48.2158 69.9211 48.2493 69.9396 48.2904C69.9581 48.3321 70.4373 48.3434 71.0046 48.3155L72.0364 48.2656L69.6041 45.8061C68.2662 44.4535 65.9105 42.056 64.3688 40.4795C61.2604 37.3002 61.362 37.3683 60.7197 38.0366ZM58.119 43.9643V44.8148H59.019H59.9194V43.9643V43.1141H59.019H58.119V43.9643ZM60.9449 43.1868C61.1512 43.2085 61.4887 43.2085 61.695 43.1868C61.9014 43.1655 61.7326 43.1476 61.3203 43.1476C60.9079 43.1476 60.7385 43.1655 60.9449 43.1868ZM74.4994 43.1875C74.733 43.2085 75.1159 43.2085 75.3496 43.1875C75.5835 43.1661 75.3922 43.1492 74.9246 43.1492C74.4571 43.1492 74.2654 43.1661 74.4994 43.1875ZM76.8502 43.1868C77.0565 43.2085 77.3939 43.2085 77.6003 43.1868C77.8066 43.1655 77.6379 43.1476 77.2255 43.1476C76.8125 43.1476 76.6438 43.1655 76.8502 43.1868ZM59.3969 43.2869C59.1925 43.3079 58.8321 43.3082 58.5969 43.2875C58.3614 43.2665 58.5292 43.2489 58.9695 43.2483C59.4095 43.248 59.602 43.2652 59.3969 43.2869ZM60.6197 44.0643V44.8148H61.3701H62.1206V44.0643V43.3142H61.3701H60.6197V44.0643ZM74.1243 44.0643V44.8148H74.9246H75.725V44.0643V43.3142H74.9246H74.1243V44.0643ZM76.4249 44.0643V44.8148H77.1754H77.9255V44.0643V43.3142H77.1754H76.4249V44.0643ZM58.119 46.3652V47.1157H59.019H59.9194V46.3652V45.6151H59.019H58.119V46.3652ZM60.6197 46.3652V47.1157H61.3701H62.1206V46.3652V45.6151H61.3701H60.6197V46.3652ZM74.1243 46.3652V47.1157H74.9246H75.725V46.3652V45.6151H74.9246H74.1243V46.3652ZM76.4249 46.3652V47.1157H77.1754H77.9255V46.3652V45.6151H77.1754H76.4249V46.3652ZM90.7296 67.9226C87.6211 67.9524 85.0659 67.9869 85.0515 67.9994C84.6024 68.388 84.4641 69.812 84.8254 70.3191C85.1076 70.7161 85.0797 70.7143 90.9629 70.7274C96.0693 70.7387 97.1747 70.772 97.0897 70.9112C97.0687 70.9451 97.2265 70.9755 97.44 70.978C97.8728 70.9833 98.5188 71.3791 98.8726 71.8555C99.0664 72.1167 99.0842 72.2901 99.1131 74.1827L99.1438 76.2277L92.2512 76.2014C88.46 76.1869 85.3177 76.2057 85.2679 76.2431C84.4688 76.8446 84.3202 78.0855 84.9646 78.7688L85.3014 79.1263H92.217H99.1322V80.8769C99.1322 81.8566 99.0924 82.6274 99.0416 82.6274C98.9917 82.6274 98.972 82.707 98.9974 82.8043C99.0714 83.0884 98.6164 83.6557 98.0804 83.9467C97.2559 84.3939 96.7448 84.4281 90.84 84.4281C87.2414 84.4281 85.2475 84.4639 85.1224 84.531C84.5005 84.864 84.413 86.4076 84.9847 86.9786L85.3413 87.3358L90.8114 87.2891C96.09 87.2442 97.0035 87.2179 97.1939 87.1047C97.2421 87.0759 97.4827 87.0191 97.7279 86.9783C99.9529 86.6098 101.478 85.1654 101.735 83.1825C101.857 82.2495 101.856 72.9581 101.735 72.1192C101.428 70.0024 99.4543 68.3208 96.9571 68.0493C96.7231 68.0239 96.5318 67.9627 96.5318 67.9128C96.5318 67.863 96.498 67.8332 96.4569 67.846C96.4152 67.8583 93.838 67.8931 90.7296 67.9226ZM105.465 72.2735C105.347 72.356 105.146 72.5924 105.018 72.7988L104.784 73.1738L104.753 79.4261C104.718 86.5132 104.725 86.6462 105.154 87.0476C105.609 87.4722 106.761 87.3907 107.156 86.9052C107.168 86.8905 107.202 84.7743 107.231 82.2021C107.265 79.2828 107.322 77.516 107.382 77.5006C107.472 77.4777 108.493 78.8833 110.486 81.7785C110.926 82.4179 111.488 83.2295 111.736 83.582C111.983 83.9345 112.501 84.679 112.886 85.2366C114.944 88.2149 115.166 88.1509 118.22 83.7062C118.891 82.7281 121.147 79.4829 121.906 78.4029C122.282 77.8675 122.612 77.4285 122.64 77.4276C122.667 77.4263 122.676 79.3499 122.66 81.702C122.627 86.5129 122.66 86.8171 123.249 87.1542C123.902 87.5268 124.887 87.306 125.179 86.7215C125.406 86.2661 125.415 73.6894 125.188 73.2554C125.107 73.1008 125.041 72.923 125.04 72.8599C125.038 72.4638 124.463 72.1239 123.795 72.1239C122.666 72.1239 122.513 72.2644 120.682 74.9752C119.976 76.0204 118.802 77.7534 118.073 78.8262C117.343 79.899 116.374 81.3285 115.92 82.0021C115.466 82.676 115.064 83.2276 115.026 83.2276C114.989 83.2276 114.613 82.7212 114.19 82.1021C112.438 79.5375 111.432 78.0579 109.989 75.9251C109.151 74.6876 108.328 73.4721 108.159 73.2246C107.461 72.1976 106.205 71.7551 105.465 72.2735Z" fill="#545D64"/>
<path d="M88.429 44.127C88.429 44.1609 88.2926 44.2167 88.1264 44.25C87.7344 44.3284 86.8246 44.949 86.1281 45.6135C85.3855 46.3219 83.8827 47.5798 83.6036 47.7266C83.4791 47.7921 83.3546 47.8739 83.3273 47.9078C83.2442 48.011 82.7337 48.3199 82.6644 48.3089C82.6286 48.303 82.5719 48.3387 82.5383 48.3879C82.4674 48.4908 80.8715 49.4162 80.7646 49.4162C80.6272 49.4162 77.8725 50.8002 77.4915 51.0601C77.2804 51.2044 77.0578 51.3324 76.9969 51.3443C76.9361 51.3565 76.7937 51.4572 76.6805 51.5679C76.5673 51.6789 76.2575 51.9436 75.9915 52.1565C75.2818 52.7251 75.2831 52.7307 76.3036 53.7029C76.8031 54.1786 77.2597 54.6945 77.3184 54.8491C77.5348 55.4198 77.3726 57.3184 77.1073 57.3184C77.0556 57.3184 77.039 57.3601 77.0703 57.4103C77.1738 57.5781 76.4491 58.2485 76.2267 58.1902C76.1157 58.1611 76.0248 58.1783 76.0248 58.2282C76.0248 58.279 75.1937 58.3188 74.124 58.3188C72.9436 58.3188 72.2233 58.2815 72.2233 58.2203C72.2233 58.1626 71.8404 58.1231 71.2978 58.125C70.3125 58.1284 69.1826 58.0767 68.122 57.9798C67.7645 57.9469 66.8754 57.8904 66.1463 57.854C65.4109 57.8173 64.821 57.7449 64.821 57.6913C64.821 57.6323 64.5711 57.622 64.1809 57.6637C63.7629 57.7085 63.5177 57.6954 63.4744 57.6254C63.4321 57.5571 62.8503 57.5185 61.8581 57.5185C60.7407 57.5185 60.3268 57.4868 60.3763 57.4068C60.4202 57.336 60.6065 57.3168 60.8825 57.3548C61.1421 57.3902 61.3196 57.3749 61.3196 57.3165C61.3196 57.2569 61.9058 57.2184 62.8199 57.2184C63.8112 57.2184 64.3205 57.2541 64.3205 57.3247C64.3205 57.3937 64.4776 57.4072 64.7715 57.3632C65.0267 57.3247 65.276 57.3382 65.3466 57.3937C65.4711 57.4921 68.9788 57.515 69.1719 57.4184C69.2271 57.3908 70.7233 57.3686 72.4974 57.3686C74.2717 57.3686 75.7234 57.335 75.7237 57.2933C75.7237 57.2522 75.7821 57.2187 75.8535 57.2187C76.0157 57.2187 76.7238 56.503 76.7238 56.339C76.7238 56.2725 76.7693 56.218 76.8238 56.218C76.879 56.218 76.9239 56.1057 76.9239 55.968C76.9239 55.8304 76.8787 55.7178 76.8238 55.7178C76.769 55.7178 76.7238 55.6488 76.7238 55.5644C76.7238 55.4801 76.6514 55.2997 76.5623 55.1646C76.4735 55.0285 76.4284 54.9181 76.4622 54.9181C76.4961 54.9181 76.439 54.8331 76.3352 54.729C76.2314 54.6249 76.1073 54.4784 76.0602 54.4032C75.8953 54.141 74.8691 53.287 74.173 52.8323C73.7878 52.5808 73.4454 52.3356 73.4115 52.2873C73.378 52.2393 73.3328 52.2067 73.3115 52.2155C73.2905 52.2242 73.1462 52.1828 72.9913 52.1242C72.8364 52.0652 72.6677 52.017 72.6162 52.017C72.5648 52.017 72.5228 51.9693 72.5228 51.911C72.5228 51.8526 72.4823 51.8297 72.4328 51.8608C72.3368 51.9197 71.0928 51.5102 71.0426 51.4023C71.0256 51.3672 70.93 51.3593 70.8284 51.386C70.7274 51.4123 70.6154 51.3869 70.58 51.3295C70.5449 51.2721 70.4486 51.2508 70.3674 51.2819C70.2859 51.3135 70.1482 51.28 70.0613 51.2082C69.8387 51.0235 66.1466 50.9573 65.07 51.1188C64.63 51.1846 64.1348 51.2461 63.9693 51.2552C63.8046 51.264 63.6099 51.3088 63.5371 51.3543C63.4647 51.4001 63.2056 51.4076 62.962 51.3709C62.6744 51.328 62.5189 51.3418 62.5189 51.4108C62.5189 51.4713 62.3047 51.5168 62.0187 51.5168C61.7436 51.5168 61.5185 51.4782 61.5185 51.4311C61.5185 51.3835 61.4059 51.3662 61.2685 51.3926C61.112 51.4227 61.0183 51.3948 61.0183 51.3179C61.0183 51.2508 60.9524 51.221 60.8712 51.2521C60.7906 51.2831 60.7003 51.2693 60.6705 51.2213C60.641 51.1737 60.4372 51.1041 60.2173 51.067C59.9975 51.0297 59.8181 50.9557 59.8181 50.9024C59.8181 50.8488 59.7761 50.8309 59.725 50.8626C59.6425 50.9134 58.9497 50.6493 58.8174 50.517C58.7898 50.4894 58.6641 50.4558 58.5374 50.442C58.411 50.4286 58.1096 50.3273 57.8675 50.2172C57.6257 50.1065 57.3802 50.0168 57.3225 50.0168C57.2641 50.0168 57.2168 49.9691 57.2168 49.9105C57.2168 49.8521 57.1729 49.8315 57.1196 49.8647C57.0662 49.8973 56.8213 49.8324 56.5751 49.7204C56.329 49.6082 56.08 49.5166 56.0216 49.5166C55.9636 49.5166 55.916 49.4692 55.916 49.4106C55.916 49.3523 55.8695 49.3338 55.8115 49.3692C55.7541 49.4046 55.6415 49.3792 55.5616 49.3128C55.4816 49.2463 55.4161 49.2256 55.4161 49.2663C55.4161 49.3074 55.3596 49.2955 55.2909 49.2403C55.222 49.1848 55.02 49.1083 54.8406 49.07C54.6619 49.0318 54.5157 48.9565 54.5157 48.9026C54.5157 48.8486 54.4753 48.8298 54.426 48.8599C54.3768 48.89 54.2078 48.8483 54.051 48.7665C53.8938 48.6846 53.6869 48.6169 53.5903 48.6166C53.494 48.6162 53.4153 48.5752 53.4153 48.5253C53.4153 48.4757 53.3253 48.4582 53.2149 48.4874C53.0989 48.5175 53.0148 48.4902 53.0148 48.4215C53.0148 48.3572 52.9697 48.3321 52.9148 48.3657C52.8599 48.3999 52.7589 48.3926 52.6896 48.3497C52.5403 48.2562 52.4641 48.2333 52.0408 48.154C51.8626 48.1208 51.7372 48.0599 51.7623 48.0188C51.7877 47.9781 51.6971 47.9658 51.5613 47.9919C51.4245 48.0179 51.3142 47.9919 51.3142 47.9332C51.3142 47.8752 51.2354 47.8266 51.1392 47.8253C50.7958 47.8203 49.8136 47.5804 49.8136 47.5017C49.8136 47.4575 49.7458 47.4474 49.6633 47.4791C49.5806 47.5111 49.4347 47.5017 49.3385 47.4591C49.1443 47.3728 48.9853 47.3418 48.2879 47.2546C48.0066 47.2195 47.8385 47.1545 47.8758 47.0943C47.9163 47.0288 47.7952 47.0178 47.529 47.0623C47.3041 47.1003 47.0623 47.0943 46.9911 47.0485C46.6744 46.8444 42.2109 46.8456 42.2109 47.0501C42.2109 47.1003 42.0312 47.1175 41.8111 47.0877C41.5912 47.0583 41.4109 47.0699 41.4109 47.1131C41.4109 47.157 41.2648 47.2217 41.086 47.2565C40.5849 47.3549 40.4726 47.3825 40.3108 47.4478C39.9091 47.6093 39.2442 47.8304 39.1103 47.847C39.0278 47.8567 38.9378 47.8924 38.9102 47.9257C38.8826 47.9586 38.5352 48.1449 38.1375 48.3396C36.7827 49.0039 35.0156 50.533 34.5396 51.4531C34.4533 51.6199 34.321 51.8181 34.2454 51.8937C34.1701 51.969 34.108 52.0712 34.108 52.1211C34.108 52.17 33.9958 52.4566 33.8578 52.7574C33.7204 53.0581 33.6078 53.3968 33.6078 53.5103C33.6078 53.6242 33.574 53.717 33.5329 53.717C33.4915 53.717 33.4818 54.1413 33.5112 54.6603C33.5661 55.6331 33.6 55.7175 34.1629 56.2675C34.4561 56.5538 36.6322 57.7126 36.8844 57.7164C36.953 57.7173 37.0089 57.7659 37.0089 57.8242C37.0089 57.8829 37.0528 57.9033 37.1061 57.8703C37.1594 57.8374 37.4046 57.9023 37.6505 58.0143C37.8967 58.1262 38.1682 58.2181 38.2542 58.2181C38.3395 58.2181 38.4094 58.262 38.4094 58.3153C38.4094 58.3687 38.4724 58.3878 38.5493 58.3586C38.6264 58.3288 38.7196 58.3536 38.7563 58.4132C38.7933 58.4731 38.8622 58.4982 38.9096 58.4684C38.9566 58.4392 39.0238 58.4612 39.0586 58.517C39.0931 58.5728 39.2088 58.6186 39.3157 58.6186C39.4223 58.6186 39.5098 58.6594 39.5098 58.7092C39.5098 58.7591 39.5998 58.7763 39.7099 58.7475C39.82 58.7186 39.91 58.7409 39.91 58.7977C39.91 58.8538 40 58.8764 40.1104 58.8472C40.2205 58.8184 40.3105 58.8359 40.3105 58.8852C40.3105 58.935 40.3892 58.9824 40.4855 58.9899C40.8643 59.0216 41.6107 59.2577 41.6107 59.3465C41.6107 59.3979 41.6825 59.4126 41.7703 59.3791C41.8575 59.3458 41.9813 59.3509 42.0453 59.3907C42.1802 59.475 42.1943 59.4791 42.8864 59.6306C43.1752 59.6936 43.4117 59.783 43.4117 59.8294C43.4117 59.8752 43.4797 59.8868 43.5631 59.8548C43.6463 59.8228 43.7764 59.8482 43.8526 59.9116C43.9285 59.9746 44.0292 60.0188 44.0765 60.0094C44.2324 59.9787 44.8122 60.1433 44.8122 60.218C44.8122 60.2584 44.9248 60.27 45.0625 60.244C45.2049 60.2167 45.3127 60.2427 45.3127 60.3045C45.3127 60.3644 45.3808 60.387 45.4636 60.355C45.5473 60.3227 45.6706 60.3428 45.7386 60.3989C45.807 60.4551 46.0764 60.5325 46.3376 60.5714C46.5988 60.6103 46.8127 60.6812 46.8127 60.7279C46.8127 60.7749 46.8811 60.7872 46.9642 60.7552C47.0473 60.7232 47.1752 60.747 47.2483 60.8075C47.3214 60.8681 47.4092 60.8906 47.443 60.8565C47.4763 60.8229 47.5851 60.8311 47.6839 60.8756C47.7824 60.9198 47.9307 60.9687 48.0132 60.9847C48.9211 61.1603 49.2829 61.2535 49.3842 61.3375C49.4507 61.3924 49.5539 61.4072 49.6138 61.3701C49.6734 61.3335 49.7769 61.3476 49.8427 61.4021C49.9092 61.4567 50.2225 61.5332 50.5389 61.5724C50.8554 61.6116 51.1141 61.6772 51.1141 61.7182C51.1141 61.7593 51.2263 61.7712 51.3643 61.7449C51.5089 61.7173 51.6143 61.7436 51.6143 61.8076C51.6143 61.8685 51.7156 61.9168 51.8394 61.9146C52.238 61.908 52.7639 62.0196 52.7969 62.1175C52.8147 62.1698 52.9555 62.1877 53.1098 62.1567C53.2641 62.1253 53.42 62.1482 53.4561 62.2059C53.4921 62.2642 53.5875 62.2865 53.6684 62.2554C53.749 62.2244 53.8938 62.2347 53.9901 62.2777C54.194 62.3693 54.3009 62.3922 54.9381 62.4803C55.1984 62.5164 55.3891 62.5822 55.3615 62.6274C55.3336 62.6722 55.4697 62.6829 55.6635 62.6515C55.9078 62.6114 56.0157 62.6321 56.0157 62.7183C56.0157 62.8011 56.1003 62.8209 56.2706 62.7779C56.4105 62.7431 56.5792 62.7491 56.6457 62.7914C56.7119 62.8344 56.8561 62.8779 56.9662 62.8892C57.6455 62.957 58.1165 63.0589 58.1165 63.1382C58.1165 63.1887 58.2736 63.2003 58.4662 63.164C58.7114 63.1182 58.8165 63.1351 58.8165 63.2207C58.8165 63.3057 58.9206 63.3236 59.1586 63.279C59.3474 63.2436 59.5277 63.2577 59.5597 63.3101C59.5923 63.3625 60.0684 63.4371 60.6181 63.476C61.1675 63.5149 61.6176 63.5867 61.6176 63.6353C61.6176 63.6836 61.7957 63.6946 62.014 63.6601C62.2319 63.6253 62.4906 63.6306 62.5891 63.6729C62.8409 63.7799 64.5187 63.7908 64.5187 63.6852C64.5187 63.6375 64.6535 63.618 64.8188 63.6422C64.9835 63.6663 65.1186 63.6541 65.1186 63.6149C65.1186 63.5757 65.3654 63.513 65.6671 63.4757C65.9691 63.438 66.2426 63.3634 66.2758 63.3101C66.3087 63.2565 66.422 63.2402 66.5273 63.2737C66.6421 63.3101 66.7189 63.2872 66.7189 63.2169C66.7189 63.1414 66.8086 63.1213 66.9692 63.1621C67.1065 63.1963 67.2191 63.1843 67.2191 63.1357C67.2191 63.0514 67.9705 62.8701 68.1549 62.9093C68.2016 62.9193 68.3014 62.877 68.3757 62.8155C68.4497 62.7538 68.5598 62.7337 68.6194 62.7704C68.6793 62.8071 68.7937 62.7836 68.8734 62.7174C68.9533 62.6509 69.1089 62.6202 69.2193 62.649C69.33 62.6782 69.4203 62.6669 69.4203 62.6236C69.4203 62.581 69.6555 62.5148 69.9428 62.4765C70.2303 62.4386 70.5223 62.3602 70.5916 62.3025C70.6612 62.2445 70.7845 62.2231 70.866 62.2545C70.9475 62.2862 71.0432 62.2639 71.0793 62.2062C71.1147 62.1485 71.2514 62.1215 71.3825 62.1469C71.5136 62.1723 71.6208 62.1589 71.6208 62.1178C71.6208 62.0366 72.132 61.9121 72.4961 61.9036C72.6203 61.9011 72.7213 61.8534 72.7213 61.7976C72.7213 61.7421 72.8339 61.7179 72.9712 61.7443C73.1089 61.7706 73.2218 61.7609 73.2218 61.7226C73.2218 61.6602 74.1529 61.4316 74.522 61.4037C74.6045 61.3977 74.7261 61.3498 74.792 61.2977C74.8582 61.2456 75.0046 61.2325 75.1172 61.2682C75.2295 61.3037 75.3217 61.2899 75.3217 61.2375C75.3217 61.1851 75.4684 61.1133 75.6469 61.0782C75.8256 61.0431 76.0621 60.9966 76.1722 60.975C76.2826 60.954 76.3945 60.9273 76.4224 60.916C76.45 60.9051 76.551 60.9041 76.6476 60.9142C76.7439 60.9236 76.8226 60.8787 76.8226 60.8138C76.8226 60.7451 76.9063 60.7179 77.0227 60.7483C77.133 60.7771 77.223 60.7599 77.223 60.71C77.223 60.6602 77.3077 60.6191 77.4109 60.6191C77.5141 60.6191 77.7672 60.5488 77.9729 60.4629C78.1786 60.377 78.4094 60.3306 78.485 60.3597C78.5612 60.3889 78.6236 60.3644 78.6236 60.3042C78.6236 60.2446 78.7136 60.2192 78.8237 60.2481C78.9341 60.2769 79.0241 60.2644 79.0241 60.2205C79.0241 60.1402 79.5083 59.9715 79.6488 60.0025C79.6905 60.0116 79.7237 59.974 79.7237 59.9188C79.7237 59.8636 79.7704 59.8191 79.8272 59.8191C79.884 59.8191 80.0978 59.7444 80.3023 59.6535C80.5068 59.5625 80.7078 59.4948 80.7495 59.5033C80.7909 59.5114 80.8242 59.481 80.8242 59.4346C80.8242 59.3888 80.9336 59.301 81.0666 59.2405C81.5373 59.0257 82.0375 58.5706 85.3501 55.3443C86.2416 54.4762 86.6017 54.0551 88.5799 51.566C91.1655 48.3127 91.1843 48.2813 90.7607 47.9423C90.4659 47.7065 89.8496 47.6325 89.6699 47.8115C89.6169 47.8645 89.4689 47.8808 89.3416 47.8476C89.1227 47.7899 89.1428 47.7529 89.7054 47.1752C90.4536 46.4072 90.8271 45.8462 90.8271 45.4906C90.8271 45.3385 90.8723 45.2137 90.9272 45.2137C90.9821 45.2137 91.0269 45.1459 91.0269 45.0634C91.0269 44.9806 90.9821 44.9132 90.9272 44.9132C90.8723 44.9132 90.8271 44.8527 90.8271 44.7787C90.8271 44.5604 90.4787 44.3089 90.0889 44.2456C89.8898 44.2133 89.7267 44.1587 89.7267 44.1248C89.7267 44.0906 89.4338 44.0627 89.0766 44.0627C88.7194 44.0627 88.429 44.0925 88.429 44.127ZM60.0198 57.5188C60.0198 57.574 59.9072 57.6185 59.7695 57.6185C59.6318 57.6185 59.5196 57.5737 59.5196 57.5188C59.5196 57.4639 59.6318 57.4188 59.7695 57.4188C59.9072 57.4188 60.0198 57.4642 60.0198 57.5188ZM48.0157 67.9332C48.0157 67.9665 47.7651 68.0198 47.459 68.0518C47.1523 68.0834 46.8306 68.1684 46.7434 68.2409C46.6562 68.3133 46.5581 68.3663 46.5251 68.3585C45.9641 68.2293 44.1207 69.9117 43.7626 70.8805C43.6622 71.1514 43.5315 71.4365 43.4722 71.5142C43.2982 71.7404 43.3232 83.3471 43.4982 83.5575C43.5713 83.6463 43.6027 83.7658 43.5672 83.8235C43.5318 83.8808 43.5434 83.9279 43.5929 83.9279C43.6425 83.9279 43.7375 84.1101 43.8043 84.3327C44.0329 85.0954 45.6734 86.5584 46.6173 86.8409C46.8362 86.9068 47.0159 87.0031 47.0159 87.0554C47.0159 87.1075 47.089 87.1222 47.1787 87.0881C47.2684 87.0539 47.4101 87.0824 47.4942 87.1524C47.6127 87.2505 49.0223 87.2863 53.8245 87.311L60.0022 87.3427L60.3362 87.0442C60.7821 86.6456 60.8521 85.1158 60.4428 84.7062L60.2148 84.4783L54.5907 84.4111C51.4976 84.3741 48.8088 84.3262 48.6162 84.3048C48.0724 84.244 47.316 84.0141 47.316 83.91C47.316 83.8583 47.2762 83.8407 47.2273 83.8708C47.1059 83.9458 46.2934 83.1451 46.368 83.0244C46.4006 82.9711 46.3765 82.9275 46.3138 82.9275C46.2391 82.9275 46.2225 82.8237 46.2658 82.6274C46.3075 82.4386 46.2915 82.3273 46.2238 82.3273C46.1479 82.3273 46.1156 80.8674 46.1156 77.4257C46.1156 73.8832 46.1466 72.524 46.2272 72.524C46.2937 72.524 46.315 72.4334 46.2805 72.3004C46.1758 71.8997 46.9419 71.1072 47.4659 71.0746C47.5208 71.0711 47.6224 71.0329 47.692 70.9896C47.7613 70.9457 47.9078 70.9391 48.0169 70.9736C48.1283 71.009 48.2164 70.9915 48.2164 70.9328C48.2164 70.8629 50.1554 70.8206 54.21 70.8011L60.2038 70.7732L60.4619 70.4731C60.8608 70.0093 60.8505 68.5504 60.445 68.1465L60.17 67.8721H54.0927C50.7503 67.8721 48.0157 67.8997 48.0157 67.9332ZM64.4845 72.2308C64.3396 72.3447 64.2211 72.525 64.2211 72.6307C64.2211 72.7364 64.1756 72.8235 64.1211 72.8235C64.0552 72.8235 64.021 75.1743 64.021 79.6758C64.021 84.1772 64.0552 86.5283 64.1211 86.5283C64.1759 86.5283 64.2211 86.5957 64.2211 86.6785C64.2211 87.0658 64.6413 87.2772 65.4818 87.3132L66.2924 87.348L67.1323 86.5728C67.5945 86.1469 68.2901 85.5009 68.6789 85.1378C69.0669 84.7749 69.6323 84.2525 69.9343 83.9774C70.6515 83.3245 76.6438 77.7712 77.5639 76.9063L78.2758 76.2377L78.326 81.4912L78.3759 86.7447L78.7026 87.0366C78.9874 87.291 79.1072 87.3286 79.6343 87.3286C81.0901 87.3286 81.0267 87.6779 81.0267 79.6058C81.0267 72.588 81.0383 72.7796 80.5842 72.2487C80.3895 72.021 78.7007 71.8928 78.6095 72.0985C78.5907 72.1402 77.7656 72.9161 76.7752 73.8233C75.7852 74.7309 74.6832 75.7432 74.3272 76.0743C73.971 76.4049 73.3162 77.013 72.8718 77.4257C70.9968 79.1668 69.8929 80.1797 69.817 80.2286C69.7722 80.2572 69.1211 80.8646 68.3697 81.579C67.6183 82.2934 66.9388 82.9143 66.8604 82.9592C66.7365 83.0294 66.7186 82.3288 66.729 77.8572L66.7412 72.6743L66.4458 72.3494C66.0657 71.931 64.9508 71.8642 64.4845 72.2308ZM36.5105 89.5809C36.376 89.7433 36.3387 90.4301 36.4541 90.6173C36.5943 90.8447 39.6381 90.7651 39.8407 90.5289C40.0721 90.258 40.0574 89.9826 39.7949 89.6803C39.5218 89.3661 36.7583 89.2827 36.5105 89.5809ZM109.806 91.0548C109.643 91.1756 108.803 92.4632 107.734 94.2307C107.451 94.6986 107.089 95.2838 106.931 95.5312C106.772 95.7789 106.554 96.1389 106.447 96.3315C106.34 96.524 106.161 96.7781 106.049 96.896C105.938 97.0139 105.874 97.1378 105.907 97.171C105.94 97.2046 105.923 97.2318 105.867 97.2318C105.806 97.2318 105.79 97.3808 105.827 97.6069C105.887 97.9798 105.89 97.9817 106.371 97.9817H106.855L107.294 97.2817C107.536 96.8963 107.825 96.424 107.938 96.2311C108.506 95.2577 108.852 94.7309 108.923 94.7309C108.967 94.7309 109.003 94.6744 109.005 94.6061C109.009 94.4301 110.043 92.7304 110.146 92.7304C110.193 92.7304 110.306 92.8769 110.397 93.0553C110.489 93.2344 110.595 93.4031 110.633 93.4307C110.67 93.458 110.81 93.6831 110.944 93.9309C111.077 94.1783 111.209 94.4035 111.237 94.4311C111.354 94.5471 111.937 95.5525 111.937 95.6381C111.937 95.6896 111.971 95.7316 112.012 95.7316C112.053 95.7316 112.199 95.9454 112.335 96.2067C112.472 96.4682 112.629 96.7348 112.685 96.7991C112.741 96.8637 112.939 97.1673 113.125 97.4743C113.615 98.284 114.408 98.3094 114.5 97.5182C114.519 97.3611 114.499 97.2325 114.458 97.2325C114.416 97.2325 114.294 97.0638 114.185 96.8574C114.076 96.6511 113.952 96.4372 113.91 96.3823C113.547 95.9069 112.406 93.9964 112.405 93.8606C112.404 93.7945 112.373 93.7587 112.336 93.7816C112.299 93.8045 112.16 93.6336 112.028 93.4021C111.329 92.1794 110.698 91.1868 110.538 91.0583C110.34 90.8993 110.017 90.8977 109.806 91.0548ZM2.50066 91.1665C2.50066 91.2138 2.38871 91.2317 2.25072 91.2053C2.11274 91.179 2.00078 91.1963 2.00078 91.2436C2.00078 91.2906 1.94433 91.3299 1.87565 91.3302C1.76558 91.3305 1.38047 91.6707 0.969027 92.1311C0.895017 92.2139 0.851426 92.3337 0.872438 92.397C0.893135 92.4601 0.863343 92.5413 0.805327 92.577C0.58016 92.716 0.672046 96.3359 0.913833 96.838C1.12991 97.2877 1.50058 97.8214 1.50058 97.6841C1.50058 97.6424 1.62414 97.6925 1.77561 97.7951C2.02681 97.9657 2.32034 97.9845 5.1735 98.0121L8.29635 98.0422L8.34653 97.812C8.58831 96.7044 8.6617 96.7317 5.42908 96.7317C3.73594 96.7317 2.70043 96.695 2.70043 96.6344C2.70043 96.5811 2.63143 96.5642 2.54708 96.5965C2.37459 96.6627 1.97569 96.3531 2.05848 96.2177C2.08827 96.1703 2.06193 96.1314 1.99953 96.1314C1.91924 96.1314 1.89604 95.6535 1.91862 94.4674C1.96127 92.2249 1.64798 92.4039 5.55139 92.3898L8.25213 92.3801L8.37726 92.1436C8.54943 91.8178 8.53375 91.55 8.32708 91.2957C8.143 91.068 2.50066 90.9429 2.50066 91.1665ZM12.4124 91.1066C9.44445 91.1354 9.43724 91.1367 9.45166 91.7018C9.46703 92.3133 9.50058 92.3302 10.7095 92.3302H11.804V95.0382C11.804 98.0701 11.7949 98.0322 12.4971 98.0322C12.721 98.0322 12.9135 98.0209 12.9251 98.0071C12.9367 97.9933 12.9706 96.7216 13.0004 95.1812L13.0543 92.3801L14.1833 92.3516C15.4211 92.3205 15.6187 92.1957 15.4559 91.5469C15.3392 91.083 15.3072 91.0783 12.4124 91.1066ZM18.3059 91.142C18.3059 91.1762 18.1294 91.2323 17.9145 91.2665C17.3406 91.3584 16.7065 91.9784 16.6344 92.5181C16.6037 92.7451 16.54 92.9302 16.4924 92.9302C16.2672 92.9302 16.3933 99.5168 16.6234 99.7814C17.2108 100.457 17.8377 99.9376 17.7885 98.8159L17.7555 98.0497L20.185 98.0159C21.6508 97.9955 22.6434 97.9425 22.6863 97.882C22.7255 97.8271 22.9322 97.6928 23.1451 97.5847C23.3897 97.4598 23.5926 97.2569 23.6955 97.0343C23.7849 96.8405 23.8805 96.6592 23.9081 96.6316C23.99 96.5501 23.9655 92.4303 23.883 92.4303C23.8419 92.4303 23.8084 92.3682 23.8084 92.292C23.8084 92.1004 23.1081 91.4352 22.8331 91.3656C22.7092 91.3342 22.6079 91.2696 22.6079 91.2226C22.6079 91.1752 22.5405 91.1624 22.4577 91.1941C22.3752 91.2257 22.2291 91.2207 22.1328 91.1828C21.9114 91.0959 18.3059 91.0576 18.3059 91.142ZM27.4515 91.142C27.4305 91.1762 27.2749 91.2317 27.1059 91.2652C26.5148 91.3835 25.6869 92.1117 25.5536 92.6307C25.547 92.6583 25.5087 92.7524 25.4695 92.8402C25.3275 93.1591 25.4699 96.732 25.6248 96.732C25.6706 96.732 25.7094 96.7881 25.711 96.8568C25.7452 98.2175 31.1091 98.596 32.2782 97.3203C32.3983 97.1892 32.546 96.9512 32.6065 96.7919C32.7269 96.4742 32.7724 92.7122 32.6583 92.5275C32.6206 92.4667 32.6147 92.3923 32.6448 92.3622C32.7567 92.2506 31.8711 91.433 31.5218 91.3258C31.3226 91.2646 31.0921 91.1912 31.0096 91.1624C30.7929 91.0874 27.497 91.068 27.4515 91.142ZM34.5113 91.2298C34.3831 91.3578 34.3621 97.8594 34.4897 98.0068C34.5016 98.0206 34.707 98.0318 34.946 98.0318C35.4575 98.0318 35.2875 98.1658 37.6624 95.8899C39.9765 93.6725 40.5516 93.1346 40.6134 93.1321C40.6407 93.1309 40.6504 94.167 40.6347 95.4343C40.6021 98.0635 40.6024 98.066 41.3369 98.0127L41.7634 97.9817L41.8132 94.6054C41.8528 91.9445 41.8368 91.2295 41.7383 91.2295C41.6696 91.2295 41.6132 91.1906 41.6132 91.1429C41.6132 90.8977 40.8555 91.094 40.509 91.4296C40.3098 91.6221 39.6989 92.207 39.1511 92.7298C38.6032 93.2522 37.6009 94.2094 36.9239 94.8554C36.2468 95.502 35.6519 96.0307 35.602 96.0307C35.5506 96.0307 35.5098 95.0257 35.508 93.7051C35.5058 92.0301 35.471 91.3371 35.3835 91.2289C35.2267 91.0357 34.7051 91.036 34.5113 91.2298ZM43.666 91.3537C43.4995 91.6362 43.4035 97.6718 43.5616 97.9281C43.6503 98.0714 44.3475 98.0595 44.4949 97.9121C44.5802 97.8264 44.6156 97.1879 44.6172 95.6864L44.6194 93.5806L44.8163 93.8308C44.9753 94.0318 45.871 95.3462 46.5446 96.3651C48.0091 98.581 48.0508 98.5797 49.6241 96.2311C49.9744 95.7084 50.3078 95.226 50.3639 95.1592C50.4201 95.0925 50.5239 94.9698 50.5938 94.8861C50.6637 94.8027 50.7139 94.707 50.7048 94.6725C50.6967 94.638 50.8641 94.3784 51.078 94.0952L51.4666 93.5803L51.5164 95.7811L51.5666 97.9817L52.0013 98.0134C52.7185 98.0648 52.7103 98.1046 52.7138 94.6559C52.716 92.5081 52.6849 91.63 52.6062 91.63C52.5454 91.63 52.5193 91.5685 52.5479 91.4926C52.6065 91.3402 52.3192 91.169 51.8906 91.1009C51.6187 91.0576 51.2357 91.3813 50.8406 91.9878C50.7716 92.0935 50.5273 92.4723 50.2975 92.8292C50.0676 93.1861 49.8421 93.5235 49.7969 93.5793C49.7515 93.6355 49.3526 94.2319 48.9104 94.9062C48.4679 95.5801 48.0674 96.1314 48.0213 96.1314C47.9448 96.1314 47.7833 95.8304 47.8153 95.7469C47.8225 95.7281 47.7635 95.661 47.6842 95.5967C47.6049 95.5331 46.9607 94.6032 46.2532 93.5304C44.5356 90.9269 44.1232 90.5797 43.666 91.3537ZM58.8726 91.1044C58.1416 91.1492 58.0375 91.2286 58.0553 91.7281C58.0742 92.2569 58.1507 92.3073 59.0194 92.3635C60.2004 92.44 60.72 92.6206 60.72 92.9543C60.72 93.1393 60.631 93.1447 58.3194 93.1133C56.9988 93.0948 55.9185 93.1196 55.9185 93.1672C55.9185 93.2149 55.8074 93.2325 55.6717 93.2064C55.5356 93.1807 55.4452 93.193 55.4706 93.2344C55.4964 93.2754 55.4063 93.3369 55.2712 93.3708C54.977 93.4448 54.628 93.7778 54.3489 94.2514C54.1165 94.6449 54.0143 96.5165 54.2115 96.7549C54.2695 96.8248 54.4746 97.0772 54.6672 97.3162C54.8601 97.5555 55.0181 97.7186 55.0181 97.679C55.0181 97.6398 55.0855 97.6634 55.1683 97.732C55.2508 97.8004 55.3185 97.823 55.3185 97.7819C55.3185 97.7411 55.3929 97.7694 55.4838 97.8446C55.6143 97.9531 56.1787 97.982 58.1595 97.982H60.6702L61.1111 97.6819C61.5595 97.3764 61.5893 97.3391 61.8637 96.7414C62.1516 96.1148 62.087 93.001 61.7731 92.3738C61.3918 91.6115 60.8728 91.2301 60.2176 91.2301C60.1088 91.2301 60.0198 91.185 60.0198 91.1301C60.0198 91.0752 59.8959 91.0385 59.7444 91.0489C59.5933 91.0592 59.2009 91.084 58.8726 91.1044ZM63.0956 91.2552C62.8842 91.4666 62.8666 91.9903 63.0636 92.1876C63.1693 92.2936 63.4807 92.3306 64.2637 92.3306H65.3212L65.3247 95.0065C65.3281 98.0685 65.3272 98.0645 66.0372 98.0137L66.4718 97.982L66.5217 95.1812L66.5715 92.3801L67.6676 92.3512C69.0477 92.3155 69.5116 91.9395 68.9367 91.3223C68.6661 91.0313 63.3803 90.9701 63.0956 91.2552ZM72.0527 91.1636C72.0241 91.2094 71.9156 91.2248 71.8121 91.1975C71.7084 91.1705 71.623 91.184 71.623 91.2279C71.623 91.2722 71.5054 91.3377 71.3618 91.3738C70.9889 91.4675 70.1225 92.3851 70.1225 92.6871C70.1225 92.8207 70.0776 92.9305 70.0227 92.9305C69.96 92.9305 69.923 93.5655 69.923 94.6365C69.923 95.7488 69.9578 96.3215 70.0227 96.2813C70.0779 96.2475 70.1225 96.3133 70.1225 96.4275C70.1225 97.3055 71.1812 97.9509 72.7166 98.0105C73.9729 98.0588 74.1237 97.9974 74.1237 97.4351C74.1237 96.8743 73.9155 96.7539 72.8765 96.716C71.7852 96.6762 71.4675 96.4852 71.3565 95.8006L71.2966 95.4308H74.2482C76.5294 95.4308 77.2243 95.4017 77.3068 95.3026C77.4278 95.1564 77.5163 92.4293 77.3996 92.4296C77.3585 92.43 77.3247 92.3556 77.3247 92.2647C77.3247 92.0734 76.556 91.3298 76.3578 91.3298C76.2848 91.3298 76.2242 91.2863 76.2242 91.2329C76.2242 91.1796 76.159 91.1611 76.079 91.1919C75.9991 91.2226 75.8824 91.2157 75.8197 91.1771C75.6566 91.0758 72.1148 91.0633 72.0527 91.1636ZM80.6692 91.1414C80.6485 91.1749 80.4751 91.2279 80.2844 91.2593C79.8476 91.3298 79.3869 91.667 79.0987 92.1255C78.7716 92.646 78.7456 99.6532 79.0699 99.8906C79.7084 100.358 80.1574 99.8783 80.1088 98.7817L80.0762 98.0466L82.4768 98.0137C85.2579 97.9748 85.8609 97.7828 86.0914 96.8637C86.1237 96.736 86.1846 96.6319 86.2278 96.6319C86.2708 96.6319 86.31 95.6867 86.315 94.5311C86.3207 93.3758 86.2855 92.4306 86.2373 92.4306C86.1893 92.4306 86.1215 92.318 86.0867 92.1794C86.0224 91.9238 85.3074 91.3302 85.0628 91.3302C84.9885 91.3302 84.9273 91.2866 84.9273 91.2333C84.9273 91.18 84.8599 91.1621 84.7774 91.1941C84.6946 91.2257 84.5485 91.2204 84.4522 91.1821C84.2336 91.095 80.721 91.0573 80.6692 91.1414ZM88.0038 91.2486C87.8441 91.4136 87.8285 91.7162 87.8285 94.5948C87.8285 98.1542 87.8002 98.0253 88.5789 98.0259C88.9455 98.0262 89.0546 97.9538 89.8791 97.1635C92.8376 94.3276 94.0519 93.1776 94.1124 93.1553C94.1498 93.1415 94.1676 94.1407 94.1519 95.3756C94.119 97.9412 94.1432 98.0322 94.8554 98.0322C95.4108 98.0322 95.4308 97.9143 95.4308 94.5894C95.4308 91.1966 95.4108 91.0799 94.8234 91.0799C94.4621 91.0799 94.3467 91.1486 93.749 91.7206C93.3811 92.0731 92.6285 92.7934 92.0759 93.3212C91.524 93.849 90.6562 94.6823 90.1472 95.1724C88.9687 96.3086 89.0151 96.3773 89.0503 93.5593C89.0681 92.1114 89.0415 91.2223 88.9784 91.1671C88.7972 91.0081 88.1872 91.0592 88.0038 91.2486ZM101.783 91.1226L101.083 91.1803L101.03 91.709C100.969 92.3155 100.937 92.2945 102.033 92.3698C103.1 92.4428 103.429 92.5394 103.611 92.8317C103.802 93.1387 103.694 93.1513 101.139 93.1139C99.8705 93.0954 98.8322 93.1146 98.8322 93.1556C98.8322 93.197 98.7603 93.2309 98.6725 93.2309C98.2325 93.2309 97.2174 93.9958 97.144 94.3828C97.076 94.7428 97.0553 96.732 97.1199 96.732C97.1544 96.732 97.2384 96.8568 97.3062 97.0101C97.378 97.1726 97.6696 97.4329 98.0058 97.6348L98.5822 97.981L100.959 98.0134C103.576 98.0485 103.968 97.9723 104.444 97.3338C104.547 97.1955 104.688 97.0155 104.758 96.9346C104.936 96.7263 104.938 92.5407 104.761 92.3284C104.693 92.2468 104.523 92.0373 104.383 91.863C104.234 91.677 103.932 91.476 103.656 91.3788C103.396 91.2875 103.106 91.1718 103.01 91.1216C102.915 91.0714 102.757 91.0382 102.66 91.0482C102.563 91.057 102.168 91.0909 101.783 91.1226ZM115.559 91.1919C115.44 91.3192 115.407 96.6388 115.525 96.7317C115.559 96.7593 115.657 96.9157 115.741 97.0794C115.825 97.2435 116.095 97.5138 116.341 97.6797L116.788 97.9817H119.139C121.458 97.9817 121.496 97.9785 121.89 97.7371C122.271 97.5037 122.795 97.0318 122.673 97.0318C122.641 97.0318 122.667 96.9694 122.731 96.8932C123.327 96.1747 122.588 93.748 121.744 93.653C121.609 93.638 121.474 93.5931 121.444 93.553C121.38 93.467 121.485 93.4708 118.789 93.4486L116.639 93.4307V92.3923C116.639 91.682 116.599 91.3226 116.513 91.2536C116.321 91.1003 115.683 91.0589 115.559 91.1919ZM124.191 91.1022C124.08 91.1216 123.889 91.1593 123.765 91.1856L123.54 91.2336V94.4747C123.54 98.1658 123.521 98.0322 124.058 98.0322C124.756 98.0322 124.741 98.1118 124.741 94.5838C124.741 91.1636 124.716 91.0094 124.191 91.1022ZM21.9613 92.4372C21.9976 92.4961 22.0867 92.5212 22.1598 92.4933C22.2319 92.4654 22.4078 92.5504 22.5496 92.6821C22.8306 92.9424 22.9711 96.1317 22.7014 96.1317C22.6434 96.1317 22.6198 96.1706 22.649 96.218C22.7324 96.3535 22.3332 96.663 22.161 96.5968C22.076 96.5645 22.0071 96.5814 22.0071 96.6348C22.0071 96.6943 21.186 96.732 19.8815 96.732L17.7562 96.7323L17.8057 94.7274C17.8587 92.6028 17.8753 92.5378 18.3564 92.5303C18.4665 92.5284 18.6239 92.4839 18.7061 92.4303C18.9165 92.2945 21.8769 92.3004 21.9613 92.4372ZM30.5653 92.4391C30.6023 92.4986 30.7145 92.5262 30.8149 92.4999C31.035 92.4422 31.4101 92.6856 31.4101 92.8856C31.4101 92.9653 31.4553 93.0302 31.5098 93.0302C31.7131 93.0302 31.6356 96.0709 31.4264 96.3124C30.8557 96.9706 27.0758 96.9176 26.7161 96.2465C26.5791 95.9903 26.5687 93.1302 26.7048 93.1302C26.7584 93.1302 26.7769 93.0653 26.7472 92.9863C26.6923 92.8436 27.4575 92.3864 27.602 92.4757C27.6384 92.4983 27.7337 92.4754 27.8134 92.4249C28.0245 92.292 30.4822 92.3042 30.5653 92.4391ZM75.0783 92.4372C75.1147 92.4961 75.2063 92.5203 75.2818 92.4911C75.7654 92.3058 76.3029 92.8427 76.2474 93.4555L76.2045 93.9309H73.7138H71.2229V93.5872C71.2229 92.9233 71.6193 92.4403 72.0991 92.5187C72.1684 92.53 72.3033 92.4936 72.3992 92.4378C72.6372 92.2992 74.9933 92.2986 75.0783 92.4372ZM84.2816 92.4372C84.318 92.4961 84.4133 92.5187 84.4933 92.488C84.9675 92.3061 85.1277 92.8286 85.1277 94.5574C85.1277 96.328 85.0076 96.7282 84.5159 96.5999C84.4124 96.5723 84.3274 96.5915 84.3274 96.6413C84.3274 96.6925 83.4161 96.732 82.2269 96.732H80.1261V94.7883V92.8442L80.4127 92.6407C80.5701 92.5284 80.7241 92.462 80.7552 92.4927C80.7862 92.5241 80.8935 92.5012 80.9941 92.4428C81.2409 92.2989 84.1932 92.2939 84.2816 92.4372ZM60.6617 94.3916C60.9546 94.5035 60.8847 96.1753 60.5742 96.4861C60.137 96.9233 55.9153 96.8427 55.4606 96.3879C55.3019 96.2293 55.2615 95.0752 55.4067 94.846C55.6654 94.4377 59.8407 94.0767 60.6617 94.3916ZM103.683 95.348C103.683 96.7765 103.768 96.7317 101.062 96.7317C99.8065 96.7317 98.9438 96.694 98.9767 96.641C99.0075 96.5912 98.9429 96.5739 98.8325 96.6024C98.7224 96.6313 98.6324 96.6097 98.6324 96.5548C98.6324 96.4999 98.5521 96.434 98.4539 96.4083C98.2796 96.3625 98.2049 94.925 98.369 94.7613C98.6782 94.4515 99.5484 94.3436 101.583 94.3618L103.684 94.3812L103.683 95.348ZM121.444 94.9849C121.844 95.3471 121.643 96.8308 121.228 96.5749C121.15 96.5266 121.135 96.5429 121.183 96.6216C121.241 96.7153 120.783 96.7357 119.156 96.7119C116.618 96.6749 116.638 96.6846 116.638 95.4907V94.7804L118.943 94.7939C120.996 94.8064 121.269 94.8271 121.444 94.9849Z" fill="#EB820F"/>
<path d="M59.6691 0.226421C59.5735 0.279733 59.3016 0.301685 59.0642 0.274715C58.8271 0.248059 58.5888 0.270011 58.5348 0.324578C58.4806 0.378518 58.2532 0.405174 58.0287 0.383535C57.8041 0.362524 57.6091 0.372246 57.5947 0.405801C57.5805 0.439043 56.9163 0.590513 56.1182 0.741983C55.3207 0.892826 54.5781 1.05653 54.4677 1.10451C54.3053 1.17632 53.4084 1.43191 52.9674 1.53258C52.9123 1.54512 52.8222 1.58338 52.7674 1.61756C52.7122 1.65112 52.4422 1.74739 52.1671 1.83081C51.1254 2.14692 48.8201 3.18808 47.4048 3.9815C43.7585 6.0265 41.4604 7.84351 38.4621 11.0532C37.5577 12.0216 36.1584 13.9406 35.0256 15.7651C34.1798 17.129 33.1522 19.4578 32.4321 21.6449C32.2305 22.2564 32.0376 22.7697 32.0028 22.7857C31.9677 22.8014 31.9605 22.9247 31.9862 23.0608C32.0147 23.2097 31.9868 23.3073 31.9156 23.3073C31.851 23.3073 31.8269 23.3537 31.862 23.4107C31.9304 23.5215 31.5976 25.0076 31.5048 25.0076C31.4744 25.0079 31.4681 25.1654 31.4907 25.3576C31.513 25.5501 31.4929 25.7079 31.4452 25.7079C31.3982 25.7079 31.3543 25.8766 31.3483 26.083C31.3283 26.7547 31.2216 27.4543 31.1348 27.4832C31.088 27.4989 31.0683 27.8034 31.0909 28.1603C31.1138 28.5168 31.0931 28.8088 31.0454 28.8088C30.9977 28.8088 30.9544 29.2472 30.9485 29.7838C30.9432 30.32 30.9093 31.1191 30.8742 31.5594C30.8234 32.185 30.8325 32.2995 30.9174 32.0847C30.9764 31.9335 31.0551 31.809 31.0921 31.8084C31.1288 31.8081 31.1721 31.3502 31.1887 30.7914C31.2047 30.2332 31.2455 29.7311 31.279 29.6768C31.3123 29.6229 31.3499 29.4388 31.3621 29.2685C31.4032 28.7006 31.5048 28.2597 31.602 28.2274C31.655 28.2098 31.6738 28.1311 31.6434 28.053C31.5688 27.857 31.8937 26.438 32.0495 26.2821C32.1192 26.2128 32.1584 26.1033 32.1367 26.0391C32.0655 25.8255 32.736 23.8661 33.3623 22.4565C36.0282 16.456 39.7635 12.1129 45.4639 8.38573C46.8441 7.48319 50.7688 5.5539 51.6594 5.34065C51.8209 5.30177 52.0687 5.20988 52.2095 5.13618C52.3506 5.06249 52.5121 5.00196 52.5676 5.00165C52.6234 5.00133 53.027 4.8875 53.4642 4.74826C53.902 4.60964 54.3181 4.51807 54.3884 4.54536C54.4593 4.57233 54.517 4.55727 54.517 4.51149C54.517 4.43246 55.4825 4.21325 56.0172 4.1706C56.1546 4.15962 56.2932 4.11603 56.3242 4.0737C56.3559 4.03105 56.7156 3.98652 57.1249 3.97366C57.5335 3.96111 57.8929 3.91658 57.9242 3.87519C58.007 3.76417 59.9059 3.57883 61.1901 3.55625C61.6414 3.54841 62.0431 3.51015 62.082 3.47127C62.1679 3.38565 64.1618 3.37562 64.2471 3.46123C64.2797 3.49385 64.5914 3.53305 64.9389 3.54716C66.0114 3.59138 68.0395 3.83567 68.4211 3.96739C68.5036 3.99592 68.7827 4.03481 69.0418 4.05363C69.3002 4.07307 69.5931 4.13109 69.6919 4.18283C69.7906 4.23458 70.198 4.33461 70.5972 4.40486C70.9958 4.47542 71.3223 4.57327 71.3223 4.62282C71.3223 4.67205 71.3605 4.68899 71.4073 4.65982C71.6252 4.52497 75.0432 5.79036 77.1239 6.77664C83.073 9.59593 88.8539 15.3499 91.4716 21.0559C91.6227 21.3864 91.8297 21.8361 91.9307 22.0563C92.8784 24.1167 94.1243 28.2067 94.1626 29.383C94.172 29.6712 94.219 29.9077 94.2673 29.908C94.3156 29.9086 94.3332 30.1366 94.3065 30.4144C94.2739 30.7512 94.2911 30.8877 94.3576 30.8212C94.4784 30.6998 94.5147 28.5084 94.3956 28.5084C94.3495 28.5084 94.3266 28.2383 94.3457 27.9081C94.3642 27.5776 94.3479 27.2963 94.3097 27.2828C94.2711 27.269 94.2159 27.0329 94.187 26.7578C94.1582 26.4828 94.0867 25.9911 94.028 25.6652C93.9691 25.3394 93.944 25.0129 93.9719 24.9399C93.9998 24.8668 93.9741 24.8069 93.9145 24.8069C93.8515 24.8069 93.8245 24.683 93.8499 24.5096C93.8741 24.3459 93.8524 24.1979 93.8016 24.181C93.7508 24.164 93.6044 23.7018 93.4761 23.1533C93.2199 22.0594 92.9044 21.0296 92.6758 20.5407C92.5949 20.3672 92.5287 20.1944 92.5287 20.1574C92.5287 20.0706 91.9975 18.8231 91.6544 18.1046C88.4152 11.3211 82.4382 5.65269 75.3731 2.66499C74.3743 2.24226 73.2136 1.79976 73.1051 1.79976C73.0487 1.79976 72.8608 1.73422 72.6877 1.65425C72.3337 1.49118 71.1263 1.16002 70.0713 0.93579C69.6862 0.854253 69.3039 0.762054 69.2211 0.731321C69.1384 0.700588 68.9583 0.664523 68.8213 0.651666C68.6836 0.638494 68.3286 0.576401 68.032 0.513367C67.7359 0.450646 67.342 0.399216 67.1567 0.399216C66.9717 0.399216 66.8205 0.36566 66.8205 0.324578C66.8218 0.174362 59.9322 0.0790273 59.6691 0.226421ZM94.5659 31.7102C94.5659 32.1778 94.5831 32.3694 94.6041 32.1352C94.6248 31.9012 94.6248 31.5186 94.6041 31.285C94.5831 31.0514 94.5659 31.2427 94.5659 31.7102ZM5.30177 67.9473C5.30177 67.9884 5.18762 68.0223 5.04744 68.0223C3.28217 68.0223 0.624388 70.035 0.344341 71.5839C0.305454 71.7984 0.256218 72.0047 0.234266 72.043C0.145517 72.2001 0.20322 86.5245 0.293851 86.7629C0.514313 87.343 0.459119 87.3389 7.45967 87.2853C13.8167 87.2367 14.7177 87.2148 15.0049 87.1038C15.0874 87.0714 15.3684 87.0197 15.6296 86.989C17.2102 86.8008 19.0062 84.8003 19.0062 83.2273C19.0062 83.0137 19.0517 82.8112 19.1062 82.777C19.237 82.6964 19.237 80.8571 19.1062 80.7765C19.0514 80.7423 19.0062 80.5601 19.0062 80.3713C19.0062 78.6412 17.0374 76.8703 14.6546 76.4576C14.1046 76.3622 13.6433 76.2594 13.6295 76.2296C13.6157 76.1992 11.1925 76.1888 8.24524 76.2054L2.88577 76.2362L2.91839 74.2551C2.96073 71.6864 3.20502 71.2499 4.78903 70.9128C5.7314 70.7121 5.89385 70.7052 10.925 70.6384C15.3537 70.5794 15.814 70.5578 15.9708 70.401C16.1496 70.2219 16.3396 68.5228 16.1809 68.5228C16.1392 68.5228 16.1054 68.4607 16.1054 68.3848C16.1054 67.9856 15.9762 67.9746 10.538 67.9226C7.65818 67.8946 5.30177 67.9059 5.30177 67.9473ZM23.0771 72.2346C22.7177 72.4435 22.702 72.7668 22.7058 79.7093C22.7105 87.2367 22.6785 86.8497 23.3189 87.1693C24.121 87.5688 24.7831 87.3587 25.8302 86.3715C26.1764 86.045 26.797 85.4652 27.2091 85.0832C27.6215 84.7009 28.5099 83.8739 29.1835 83.2452C29.8571 82.6161 30.5098 82.0137 30.6339 81.9064C30.8738 81.6994 31.6108 81.0164 32.7624 79.9354C33.3949 79.3411 34.7011 78.1303 36.2114 76.7379C36.514 76.4585 36.7956 76.2293 36.8367 76.2277C36.8781 76.2261 36.9116 78.5719 36.9116 81.4398V86.6547L37.2688 86.9918C37.8208 87.512 38.7926 87.4399 39.2875 86.8416C39.3853 86.724 39.4126 85.1356 39.4126 79.6529V72.6147L39.1671 72.3691C38.9444 72.1465 38.8412 72.1236 38.0591 72.1236H37.197L36.5792 72.6968C36.2396 73.0123 35.6227 73.5862 35.2088 73.9723C33.5821 75.4895 33.1139 75.9232 31.8601 77.0747C30.2965 78.5107 29.6069 79.1486 28.6112 80.08C26.9585 81.627 25.43 83.0272 25.3949 83.0272C25.3748 83.0272 25.3704 80.7765 25.3861 78.0256C25.4046 74.6522 25.3798 73.0239 25.3109 73.0239C25.2541 73.0239 25.2083 72.9399 25.2083 72.8373C25.2083 72.2286 23.7811 71.825 23.0771 72.2346ZM14.1049 79.201C14.1052 79.242 14.2739 79.2787 14.48 79.2819C15.7965 79.3029 16.4494 80.2443 16.3901 82.0356C16.349 83.2759 15.7538 84.2211 15.158 83.9925C15.083 83.9636 14.9946 84.0094 14.9623 84.0941C14.9297 84.1791 14.8375 84.2227 14.7572 84.1923C14.6769 84.1618 14.5819 84.1838 14.5458 84.2421C14.5098 84.3001 14.3511 84.3218 14.1924 84.2901C14.0328 84.2578 13.9045 84.2757 13.9045 84.3299C13.9045 84.392 11.91 84.4278 8.40267 84.4278H2.90083V81.7769V79.126H8.50239C11.5839 79.126 14.1049 79.1596 14.1049 79.201Z" fill="#2C9C3C"/>
</g>
<defs>
<clipPath id="clip0_1_9">
<rect width="125.441" height="100" fill="white"/>
</clipPath>
</defs>
</svg>
